<svg version="1.0" xmlns="http://www.w3.org/2000/svg" width="464" height="464" viewBox="0 0 348 348"><path d="M4 174.5V344h339V5H4v169.5zm337 0V342H6V7h335v167.5z"/><path d="M294.5 25c-4.6 1-7.9 3.5-10.3 7.9-5.6 9.8.4 21.5 11.9 23.6 7.2 1.3 16.8-5.3 18.4-12.6 2.5-11.1-8.5-21.5-20-18.9zm11.4 3.9c9.5 6.7 9 18.7-1 23.9-9.7 5.1-20.9-1.4-20.9-12.1 0-6.7 3.1-10.9 9.7-13.2 4.4-1.5 8.8-1 12.2 1.4zM29 112.5V154h80V71H29v41.5zm79 0V153H30v-39.8c0-21.9.3-40.2.7-40.5.3-.4 17.9-.7 39-.7H108v40.5z"/><path d="M61.2 91.6c-3.5 2.5-6.1 4.8-5.8 5.1.3.3 3.1-1.3 6.2-3.7 3-2.3 5.8-4 6-3.7.2.2.1 8.8-.2 19l-.7 18.6-7.6.4c-4.2.1-.6.3 7.9.3s12.2-.2 8.2-.3l-7.2-.4.6-19.9c.4-11.8.3-20-.2-20s-3.7 2.1-7.2 4.6zM140 113v30h58V83h-58v30zm57 0v29h-56v-28.3c0-15.6.3-28.7.7-29 .3-.4 12.9-.7 28-.7H197v29z"/><path d="M153.4 103.2c.4 6.2.9 12.1 1.2 13 .5 1.6 1.9 1.8 13.7 1.6l13.2-.2-12.6-.3-12.6-.4-.7-3.7c-1.4-8.7-2.3-8.1 13.2-8.5l13.7-.3-13.6-.2c-15.2-.2-14.9 0-14.9-8v-3.3l16 .7c11.8.5 16 .4 16-.5 0-.8-4.8-1.1-16.6-1.1h-16.7l.7 11.2zM243 113.5V143h60V84h-60v29.5zm59 0V142h-58v-27.8c0-15.3.3-28.2.7-28.5.3-.4 13.4-.7 29-.7H302v28.5z"/><path d="M265.3 93.7c-3.6.7-9 7.8-9.7 12.8-2.7 17.8 17.5 27.1 25.4 11.6 3.7-7.3 1.8-17.6-3.9-21.9-3-2.2-8.1-3.3-11.8-2.5zm11.6 4.2c8 7.5 5.4 22.6-4.5 26-3.5 1.2-4.4 1.2-7.7-.4-11.5-5.4-10.2-25.1 1.9-28.4 4.1-1.1 7-.3 10.3 2.8zM47.7 190.7c-.4.3-.7 26.4-.7 58V306h259V190H177.2c-70.9 0-129.2.3-129.5.7zM305 248v57H48v-56.3c0-31 .3-56.7.7-57 .3-.4 58.2-.7 128.5-.7H305v57z"/><path d="M78 219.6c0 .3 3.9 5 8.7 10.6 6.4 7.3 8.4 10.4 7.7 11.4-.5.7-3.7 5.4-7.2 10.4-3.5 4.9-6 9-5.5 9 1 0 29.7-40.9 29.1-41.6-.3-.2-3.7 4.1-7.5 9.6l-7.1 10.1-8.7-10c-8.3-9.6-9.5-10.8-9.5-9.5zM127 220.5c0 .5 3.4 4.4 7.5 8.5l7.6 7.6-11.6 15.2c-6.4 8.4-11.2 15.2-10.8 15.2.5 0 5.4-6 11-13.3 5.6-7.2 10.9-14.1 11.7-15.2.9-1.1 3.4-4.5 5.7-7.5 2.3-3 4.6-6.1 5.2-6.8.6-.7.6-1.2 0-1.2-.5 0-2.9 2.7-5.3 6s-4.6 6-4.9 6c-.3 0-4.1-3.5-8.3-7.7-4.3-4.3-7.8-7.3-7.8-6.8zM228.7 224.2c.5.7 3.6 4.6 6.8 8.6l5.8 7.3-6.2 12.9c-3.3 7.2-6.1 13.6-6.1 14.3.1.6 3.7-6.2 8.1-15.3 10.7-21.9 13-27 12-27-.5 0-2.1 2.9-3.6 6.5-1.6 3.6-3.2 6.5-3.6 6.5-.4 0-3.4-3.4-6.6-7.5-3.1-4.1-6.1-7.5-6.6-7.5-.6 0-.5.5 0 1.2zM185.3 232.4l6.5 8.4-7.4 12.3c-4 6.8-7.1 12.5-6.9 12.8.7.6-.2 1.9 12.4-19.2 6.2-10.4 11.1-19.1 10.8-19.3-.3-.3-2.3 2.4-4.4 6l-3.9 6.6-5.9-8c-3.2-4.4-6.3-8-6.8-8s2.1 3.8 5.6 8.4z"/></svg>