<?xml version="1.0" standalone="no"?>
<!DOCTYPE svg PUBLIC "-//W3C//DTD SVG 20010904//EN"
 "http://www.w3.org/TR/2001/REC-SVG-20010904/DTD/svg10.dtd">
<svg version="1.0" xmlns="http://www.w3.org/2000/svg"
 width="348.000000pt" height="348.000000pt" viewBox="0 0 348.000000 348.000000"
 preserveAspectRatio="xMidYMid meet">

<g transform="translate(0.000000,348.000000) scale(0.100000,-0.100000)"
fill="#000000" stroke="none">
<path d="M40 1735 l0 -1695 1695 0 1695 0 0 1695 0 1695 -1695 0 -1695 0 0
-1695z m3370 0 l0 -1675 -1675 0 -1675 0 0 1675 0 1675 1675 0 1675 0 0 -1675z"/>
<path d="M2945 3230 c-46 -10 -79 -35 -103 -79 -56 -98 4 -215 119 -236 72
-13 168 53 184 126 25 111 -85 215 -200 189z m114 -39 c95 -67 90 -187 -10
-239 -97 -51 -209 14 -209 121 0 67 31 109 97 132 44 15 88 10 122 -14z"/>
<path d="M290 2355 l0 -415 400 0 400 0 0 415 0 415 -400 0 -400 0 0 -415z
m790 0 l0 -405 -390 0 -390 0 0 398 c0 219 3 402 7 405 3 4 179 7 390 7 l383
0 0 -405z"/>
<path d="M612 2564 c-35 -25 -61 -48 -58 -51 3 -3 31 13 62 37 30 23 58 40 60
37 2 -2 1 -88 -2 -190 l-7 -186 -76 -4 c-42 -1 -6 -3 79 -3 85 0 122 2 82 3
l-72 4 6 199 c4 118 3 200 -2 200 -5 0 -37 -21 -72 -46z"/>
<path d="M1400 2350 l0 -300 290 0 290 0 0 300 0 300 -290 0 -290 0 0 -300z
m570 0 l0 -290 -280 0 -280 0 0 283 c0 156 3 287 7 290 3 4 129 7 280 7 l273
0 0 -290z"/>
<path d="M1534 2448 c4 -62 9 -121 12 -130 5 -16 19 -18 137 -16 l132 2 -126
3 -126 4 -7 37 c-14 87 -23 81 132 85 l137 3 -136 2 c-152 2 -149 0 -149 80
l0 33 160 -7 c118 -5 160 -4 160 5 0 8 -48 11 -166 11 l-167 0 7 -112z"/>
<path d="M2430 2345 l0 -295 300 0 300 0 0 295 0 295 -300 0 -300 0 0 -295z
m590 0 l0 -285 -290 0 -290 0 0 278 c0 153 3 282 7 285 3 4 134 7 290 7 l283
0 0 -285z"/>
<path d="M2653 2543 c-36 -7 -90 -78 -97 -128 -27 -178 175 -271 254 -116 37
73 18 176 -39 219 -30 22 -81 33 -118 25z m116 -42 c80 -75 54 -226 -45 -260
-35 -12 -44 -12 -77 4 -115 54 -102 251 19 284 41 11 70 3 103 -28z"/>
<path d="M477 1573 c-4 -3 -7 -264 -7 -580 l0 -573 1295 0 1295 0 0 580 0 580
-1288 0 c-709 0 -1292 -3 -1295 -7z m2573 -573 l0 -570 -1285 0 -1285 0 0 563
c0 310 3 567 7 570 3 4 582 7 1285 7 l1278 0 0 -570z"/>
<path d="M780 1284 c0 -3 39 -50 87 -106 64 -73 84 -104 77 -114 -5 -7 -37
-54 -72 -104 -35 -49 -60 -90 -55 -90 10 0 297 409 291 416 -3 2 -37 -41 -75
-96 l-71 -101 -87 100 c-83 96 -95 108 -95 95z"/>
<path d="M1270 1275 c0 -5 34 -44 75 -85 l76 -76 -116 -152 c-64 -84 -112
-152 -108 -152 5 0 54 60 110 133 56 72 109 141 117 152 9 11 34 45 57 75 23
30 46 61 52 68 6 7 6 12 0 12 -5 0 -29 -27 -53 -60 -24 -33 -46 -60 -49 -60
-3 0 -41 35 -83 77 -43 43 -78 73 -78 68z"/>
<path d="M2287 1238 c5 -7 36 -46 68 -86 l58 -73 -62 -129 c-33 -72 -61 -136
-61 -143 1 -6 37 62 81 153 107 219 130 270 120 270 -5 0 -21 -29 -36 -65 -16
-36 -32 -65 -36 -65 -4 0 -34 34 -66 75 -31 41 -61 75 -66 75 -6 0 -5 -5 0
-12z"/>
<path d="M1853 1156 l65 -84 -74 -123 c-40 -68 -71 -125 -69 -128 7 -6 -2 -19
124 192 62 104 111 191 108 193 -3 3 -23 -24 -44 -60 l-39 -66 -59 80 c-32 44
-63 80 -68 80 -5 0 21 -38 56 -84z"/>
</g>
</svg>
